<svg xmlns="http://www.w3.org/2000/svg" viewBox="-2134.992 243.616 78.323 78.327">
  <defs>
    <style>
      .cls-1 {
        fill: #ffce54;
      }
    </style>
  </defs>
  <g id="sun" transform="translate(-2134.992 243.616)">
    <path id="Path_5915" data-name="Path 5915" class="cls-1" d="M164.226,139.111A21.111,21.111,0,1,1,143.115,118,21.11,21.11,0,0,1,164.226,139.111Z" transform="translate(-103.342 -99.949)"/>
    <path id="Path_5916" data-name="Path 5916" d="M438.1,245.336h-9.791a1.632,1.632,0,1,0,0,3.264H438.1a1.632,1.632,0,0,0,0-3.264Z" transform="translate(-361.406 -207.805)"/>
    <path id="Path_5917" data-name="Path 5917" d="M11.433,248.6h0a1.632,1.632,0,1,0,0-3.264H1.643a1.632,1.632,0,0,0,0,3.264h9.789Z" transform="translate(-0.012 -207.805)"/>
    <path id="Path_5918" data-name="Path 5918" d="M376.36,81.57v0l6.92-6.92h0a1.632,1.632,0,0,0-2.309-2.308h0l-6.922,6.922h0a1.633,1.633,0,0,0,2.309,2.309Z" transform="translate(-316.427 -60.868)"/>
    <path id="Path_5919" data-name="Path 5919" d="M79.266,374.038h0l-6.921,6.92v0a1.631,1.631,0,0,0,2.308,2.307h0l6.92-6.92s0,0,0,0a1.631,1.631,0,0,0-2.308-2.307Z" transform="translate(-60.873 -316.413)"/>
    <path id="Path_5920" data-name="Path 5920" d="M246.979,13.055a1.631,1.631,0,0,0,1.631-1.631h0V1.633a1.631,1.631,0,1,0-3.263,0h0v9.788h0A1.631,1.631,0,0,0,246.979,13.055Z" transform="translate(-207.817 0)"/>
    <path id="Path_5921" data-name="Path 5921" d="M246.979,426.672a1.632,1.632,0,0,0-1.631,1.63v9.791h0a1.631,1.631,0,1,0,3.263,0h0V428.3h0A1.632,1.632,0,0,0,246.979,426.672Z" transform="translate(-207.817 -361.4)"/>
    <path id="Path_5922" data-name="Path 5922" d="M72.347,74.649l6.92,6.919a0,0,0,0,1,0,0,1.632,1.632,0,1,0,2.309-2.307h0L74.654,72.34h0a1.632,1.632,0,0,0-2.309,2.308Z" transform="translate(-60.876 -60.869)"/>
    <path id="Path_5923" data-name="Path 5923" d="M383.282,380.954l-6.922-6.92v0a1.633,1.633,0,0,0-2.309,2.309v0l6.922,6.92h0a1.632,1.632,0,0,0,2.309-2.307Z" transform="translate(-316.427 -316.409)"/>
    <path id="Path_5924" data-name="Path 5924" d="M129.521,106.672a22.844,22.844,0,1,0,22.845,22.845A22.845,22.845,0,0,0,129.521,106.672Zm13.846,36.691a19.584,19.584,0,1,1,5.734-13.846A19.458,19.458,0,0,1,143.367,143.363Z" transform="translate(-90.359 -90.353)"/>
  </g>
</svg>
